<?xml version="1.0" standalone="no"?>
<!DOCTYPE svg PUBLIC "-//W3C//DTD SVG 1.1//EN" "http://www.w3.org/Graphics/SVG/1.1/DTD/svg11.dtd" >
<svg xmlns="http://www.w3.org/2000/svg">
<metadata></metadata>
<defs>
<font id="SuiGenerisFreeRegular" horiz-adv-x="1935" >
<font-face units-per-em="2048" ascent="1638" descent="-410" />
<missing-glyph horiz-adv-x="684" />
<glyph horiz-adv-x="0" />
<glyph horiz-adv-x="2048" />
<glyph unicode=" "  horiz-adv-x="684" />
<glyph unicode="&#x09;" horiz-adv-x="684" />
<glyph unicode="&#xa0;" horiz-adv-x="684" />
<glyph unicode="!" horiz-adv-x="509" d="M80 2v209h334v-209h-334zM80 932v690h334v-690l-92 -563h-148z" />
<glyph unicode="&#x22;" horiz-adv-x="835" d="M84 1589h297l-92 -428h-121zM455 1589h295l-93 -428h-120z" />
<glyph unicode="#" horiz-adv-x="940" d="M74 446v156h123v215h-123v154h123v133h153v-133h215v133h156v-133h119v-154h-119v-215h119v-156h-119v-108h-156v108h-215v-108h-153v108h-123zM350 602h215v215h-215v-215z" />
<glyph unicode="$" horiz-adv-x="1570" d="M80 952q0 86 38 154t104.5 114t156.5 70.5t194 24.5h45v164h130v-166h110v166h131v-164h340v-203h-340v-254h90q94 0 175 -24.5t138.5 -68.5t90.5 -106.5t33 -136.5q0 -84 -36 -149.5t-97.5 -111.5t-144.5 -70.5t-177 -24.5h-72v-168h-131v170h-110v-170h-130v168h-446 v233h446v222h-118q-88 0 -165 24.5t-133.5 67.5t-89 104.5t-32.5 134.5zM444 989q0 -55 27 -93t68 -38h79v254h-79q-94 0 -95 -123zM745 397h115v226h-115v-226zM745 858h115v254h-115v-254zM989 399h62q45 0 70.5 32t25.5 77q0 47 -26.5 80t-69.5 33h-62v-222z" />
<glyph unicode="%" horiz-adv-x="1619" d="M100 1004v270q0 86 58.5 144.5t144.5 58.5h168q86 0 144.5 -58.5t58.5 -144.5v-270q0 -86 -58.5 -144.5t-144.5 -58.5h-168q-86 0 -144.5 58.5t-58.5 144.5zM233 0l967 1477h199l-981 -1477h-185zM252 1004q0 -49 51 -50h168q51 0 51 50v270q0 51 -51 51h-168 q-51 0 -51 -51v-270zM950 203v270q0 86 58.5 144.5t144.5 58.5h170q86 0 144.5 -58.5t58.5 -144.5v-270q0 -86 -58.5 -144.5t-144.5 -58.5h-170q-86 0 -144.5 58.5t-58.5 144.5zM1102 203q0 -51 51 -51h170q49 0 49 51v270q0 49 -49 49h-170q-51 0 -51 -49v-270z" />
<glyph unicode="&#x26;" horiz-adv-x="1679" d="M82 444v74q0 76 23.5 145.5t65.5 121t99.5 82t124.5 30.5q12 0 24.5 -1t24.5 -3l-297 371v215h1041v-334h-520q51 -41 73 -70l291 -362q14 -16 26.5 -35t26.5 -39q29 47 103 133h416l-263 -328q-10 -14 -24 -27.5t-35 -27.5q12 -12 25.5 -24.5t29.5 -32.5l267 -332h-443 l-129 160q-35 -72 -106.5 -116t-149.5 -44h-250q-92 0 -173 35t-141 95t-95 141t-35 173zM416 444q0 -47 32.5 -79.5t77.5 -32.5h250q61 0 96 43q-23 12 -67 69l-139 174q-10 10 -35 11h-105q-45 0 -77.5 -33t-32.5 -78v-74z" />
<glyph unicode="'" horiz-adv-x="514" d="M94 1380v209h332v-209l-176 -245l-100 53q70 100 69 141q0 51 -125 51z" />
<glyph unicode="(" horiz-adv-x="552" d="M92 147v1182q0 295 258 295h70v-147h-70q-45 0 -77.5 -33t-32.5 -78v-1255q0 -45 32.5 -78t77.5 -33h70v-147h-70q-125 0 -191.5 82.5t-66.5 211.5z" />
<glyph unicode=")" horiz-adv-x="608" d="M182 0h70q45 0 77.5 33t32.5 78v1255q0 45 -32.5 78t-77.5 33h-70v147h70q258 0 258 -295v-1182q0 -131 -67.5 -212.5t-190.5 -81.5h-70v147z" />
<glyph unicode="*" horiz-adv-x="749" d="M121 1206l63 113l125 -74v150h129v-152l129 76l64 -113l-127 -73l125 -74l-64 -113l-127 76v-145h-129v141l-123 -72l-63 113l125 74z" />
<glyph unicode="+" horiz-adv-x="927" d="M98 651v185h267v272h184v-272h285v-185h-285v-278h-184v278h-267z" />
<glyph unicode="," horiz-adv-x="589" d="M123 2v209h332v-209l-176 -246l-101 54q70 100 70 141q0 51 -125 51z" />
<glyph unicode="-" horiz-adv-x="866" d="M92 578v333h662v-333h-662z" />
<glyph unicode="." horiz-adv-x="550" d="M104 2v209h334v-209h-334z" />
<glyph unicode="/" horiz-adv-x="874" d="M41 0l596 1477h201l-611 -1477h-186z" />
<glyph unicode="0" horiz-adv-x="1904" d="M90 444v588q0 92 37 174t98.5 141.5t141 94.5t168.5 35h831q88 0 169 -36t142.5 -96.5t97 -141.5t35.5 -171v-588q0 -90 -34.5 -170.5t-94 -141t-141.5 -96.5t-174 -36h-831q-92 0 -173 35t-141.5 95t-95.5 141t-35 173zM424 444q0 -47 32.5 -79.5t78.5 -32.5h831 q45 0 78 32.5t33 79.5v588q0 47 -33 80t-78 33h-831q-45 0 -78 -33t-33 -80v-588z" />
<glyph unicode="1" horiz-adv-x="841" d="M31 1266l278 213h432v-1481h-331v1049q0 53 6 120q-29 -27 -81 -63.5t-124 -85.5z" />
<glyph unicode="2" horiz-adv-x="1718" d="M84 -2v446q0 106 45 192.5t122 146t178 91t216 31.5h522q66 0 112 32t46 87q0 59 -48 90t-110 31h-960v332h907q113 0 213 -30t174 -87t117 -141.5t43 -190.5q0 -109 -43 -192.5t-117 -142t-174 -89.5t-213 -31h-530q-61 0 -105.5 -34.5t-44.5 -94.5v-114h1174v-332 h-1524z" />
<glyph unicode="3" horiz-adv-x="1687" d="M84 -2v332h1012q61 0 105 31.5t44 89.5q0 57 -44 89.5t-105 32.5h-541v244l375 279q14 10 35.5 25.5t50.5 31.5q-29 -4 -56.5 -6t-52.5 -2h-768v332h1360v-332q-72 -45 -178.5 -107.5t-253.5 -148.5q27 2 49.5 2h42.5q86 0 167 -30t144.5 -87t101.5 -138t38 -185 q0 -111 -44 -195t-120 -141.5t-178.5 -87t-220.5 -29.5h-963z" />
<glyph unicode="4" horiz-adv-x="1589" d="M98 201v270l1006 1008h260v-981h119v-297h-119v-201h-332v201h-934zM518 492q33 6 64 6h450v510q-35 -47 -74 -86l-389 -387q-12 -10 -24.5 -21.5t-26.5 -21.5z" />
<glyph unicode="5" horiz-adv-x="1701" d="M84 -2v332h1063q59 0 103 31.5t44 89.5q0 57 -44 89.5t-103 32.5h-1063v904h1452v-332h-1114v-240h661q123 0 226.5 -33.5t178.5 -95t117 -144.5t42 -181q0 -104 -44 -188.5t-121 -143t-179.5 -90t-219.5 -31.5h-999z" />
<glyph unicode="6" horiz-adv-x="1812" d="M72 444v510q0 522 657 523h885v-332h-938q-266 0 -266 -217v-191q14 45 45.5 83t72.5 64.5t89.5 42t95.5 15.5h448q123 0 231.5 -35t189.5 -99.5t127 -153.5t46 -195q0 -111 -43 -197t-118.5 -144.5t-178 -89t-221.5 -30.5h-559q-121 0 -224.5 32.5t-179 92t-117.5 141.5 t-42 180zM424 459q0 -129 147 -129h686q63 0 105.5 38t42.5 101q0 61 -42 102t-106 41h-624q-209 0 -209 -153z" />
<glyph unicode="7" horiz-adv-x="1562" d="M49 1145v334h1489l-797 -1479h-368l604 1145h-928z" />
<glyph unicode="8" horiz-adv-x="1869" d="M80 444v7q0 41 16.5 85t42 83.5t60 71.5t71.5 48q-37 14 -71.5 45t-61 71t-42 84t-15.5 87q0 106 45 190t122 142.5t179 90.5t217 32h559q121 0 224.5 -33t178 -93.5t116.5 -145.5t42 -187q0 -41 -16 -85t-43 -84t-61.5 -70.5t-69.5 -43.5q33 -10 66.5 -42.5t61.5 -75.5 t45 -90.5t17 -86.5q0 -109 -44 -191.5t-119.5 -139t-178 -86t-219.5 -29.5h-559q-121 0 -223.5 30.5t-177 89t-117.5 141.5t-45 185zM432 451q0 -53 43 -87t105 -34h684q61 0 105 32t44 89t-44 89.5t-105 32.5h-684q-59 0 -103.5 -32.5t-44.5 -89.5zM432 1026q0 -53 42 -86 t106 -33h684q61 0 105 31t44 88q0 59 -44 92t-105 33h-684q-59 0 -103.5 -33t-44.5 -92z" />
<glyph unicode="9" horiz-adv-x="1857" d="M76 989q0 111 42 201t116.5 154.5t178 99.5t224.5 35h559q119 0 222.5 -32t178 -90.5t117.5 -141t43 -183.5v-510q0 -522 -655 -522h-885v332h938q266 0 266 217v135q-14 -45 -46 -83t-72.5 -64.5t-89 -41t-95.5 -14.5h-448q-127 0 -235.5 37t-188.5 104.5t-125 161 t-45 205.5zM426 981q0 -70 40 -120t107 -50h625q94 0 154.5 46t60.5 126q0 68 -44 116t-109 48h-687q-68 0 -107.5 -48t-39.5 -118z" />
<glyph unicode=":" horiz-adv-x="557" d="M117 2v209h334v-209h-334zM117 741v209h334v-209h-334z" />
<glyph unicode=";" horiz-adv-x="542" d="M117 2v209h332v-209l-177 -246l-100 54q70 100 70 141q0 51 -125 51zM117 741v209h332v-209h-332z" />
<glyph unicode="&#x3c;" horiz-adv-x="757" d="M72 737l454 461l152 -154l-303 -307l303 -307l-152 -154z" />
<glyph unicode="=" horiz-adv-x="780" d="M121 485v148h551v-148h-551zM121 854v150h551v-150h-551z" />
<glyph unicode="&#x3e;" horiz-adv-x="802" d="M102 430l304 307l-304 307l152 154l457 -461l-457 -461z" />
<glyph unicode="?" horiz-adv-x="1396" d="M53 1145v332h735q115 0 215.5 -30t174 -88.5t115.5 -142.5t42 -190q0 -102 -42 -185t-115.5 -142.5t-174 -92.5t-215.5 -33q-45 0 -72.5 -7t-43 -31.5t-21.5 -73.5t-6 -131h-332v114q0 106 38 191.5t106.5 145t165 92t215.5 32.5q72 0 116.5 33t44.5 88q0 53 -48 86 t-109 33h-789zM313 2v209h332v-209h-332z" />
<glyph unicode="@" horiz-adv-x="1445" d="M82 449v557q0 53 20.5 100t55.5 82t82 55.5t100 20.5h754q53 0 100 -20.5t82 -55.5t55.5 -82t20.5 -100v-557q0 -53 -20.5 -100.5t-55.5 -83.5t-82 -56.5t-100 -20.5h-754q-53 0 -100 20.5t-82 56.5t-55.5 83t-20.5 101zM276 449q0 -66 64 -66h754q63 0 63 66v557 q0 66 -63 65h-754q-63 0 -64 -65v-557zM360 664v116q0 41 15.5 77t43 63.5t63.5 43t77 15.5h234q23 0 52 -8t56 -17.5t46.5 -16.5t25.5 -7q37 0 92 55v-518q-41 41 -74 41q-8 0 -25.5 -6t-38 -14.5t-42 -14.5t-35.5 -6h-291q-41 0 -77 15.5t-63.5 42t-43 62.5t-15.5 77z M508 664q0 -49 51 -50h307q51 0 52 31v154q0 31 -52 30h-307q-51 0 -51 -49v-116z" />
<glyph unicode="A" d="M20 0l775 1477h405l774 -1477h-383l-164 332h-858l-163 -332h-386zM745 666h506q-106 193 -168.5 330t-85.5 218q-45 -158 -252 -548z" />
<glyph unicode="B" horiz-adv-x="1853" d="M88 -2v1481h1268q92 0 171 -30t136 -84t89 -129t32 -167q0 -49 -13.5 -98t-37 -92t-55 -75t-70.5 -44q86 -33 138 -120t52 -198q0 -90 -34.5 -171t-95 -141t-140.5 -96t-172 -36h-1268zM420 332h936q51 0 80.5 37t29.5 88q0 53 -29.5 89t-80.5 36h-936v-250zM420 918h936 q49 0 78.5 31.5t29.5 80.5t-29.5 82t-78.5 33h-936v-227z" />
<glyph unicode="C" horiz-adv-x="1904" d="M104 444v588q0 92 36 174t96.5 141.5t140.5 94.5t170 35h926q117 0 216 -54.5t146 -138.5l-279 -203q-14 63 -83 64h-926q-45 0 -78 -33t-33 -80v-588q0 -47 33 -79.5t78 -32.5h926q59 0 137 92l245 -223q-37 -41 -85 -78t-99 -64.5t-102 -43t-96 -15.5h-926 q-90 0 -171 35t-141.5 95t-95.5 141t-35 173z" />
<glyph unicode="D" horiz-adv-x="2007" d="M104 0v1477h1350q88 0 169 -36t141.5 -96.5t96 -141.5t35.5 -171v-588q0 -90 -34.5 -170.5t-95 -141t-140.5 -96.5t-172 -36h-1350zM436 332h1018q45 0 78 32.5t33 79.5v588q0 47 -33 80t-78 33h-1018v-813z" />
<glyph unicode="E" horiz-adv-x="1640" d="M92 -2v1481h1473v-332h-1139v-236h1102v-333h-1102v-246h1139v-334h-1473z" />
<glyph unicode="F" horiz-adv-x="1579" d="M92 -2v1481h1438v-332h-1104v-236h1067v-333h-1067v-580h-334z" />
<glyph unicode="G" horiz-adv-x="1871" d="M76 444v588q0 92 35.5 174t96 141.5t141.5 94.5t171 35h846q229 0 363 -189l-273 -211q-18 68 -90 68h-846q-47 0 -79.5 -33t-32.5 -80v-588q0 -47 32.5 -79.5t79.5 -32.5h717q43 0 84 19.5t72.5 52t52 73.5t20.5 84v35q-129 -18 -161 -18h-324v333h801v-913h-316v121 q-23 -53 -78 -86t-114 -33h-754q-92 0 -173 35t-141.5 95t-95 141t-34.5 173z" />
<glyph unicode="H" horiz-adv-x="1691" d="M86 -2v1481h332v-568h846v568h331v-1481h-331v580h-846v-580h-332z" />
<glyph unicode="I" horiz-adv-x="540" d="M104 -2v1481h334v-1481h-334z" />
<glyph unicode="J" horiz-adv-x="1509" d="M76 0v332h887q45 0 77.5 32.5t32.5 79.5v1033h332v-1033q0 -92 -35 -173t-94 -141t-140 -95t-173 -35h-887z" />
<glyph unicode="K" horiz-adv-x="1826" d="M98 0v1479h334v-959q33 45 74 86l872 873h451l-672 -672q-16 -16 -35.5 -33.5t-42.5 -36.5q16 -12 36 -28.5t42 -36.5l672 -672h-451l-452 463q-29 29 -47 53q2 0 -29 -30.5t-80 -78t-107.5 -101.5t-108.5 -101t-85 -80t-37 -35v-90h-334z" />
<glyph unicode="L" horiz-adv-x="1570" d="M92 -2v1481h334v-1147h1120v-334h-1454z" />
<glyph unicode="M" horiz-adv-x="2027" d="M96 -2v1481h355l411 -867q43 -92 86 -186t64 -164q12 51 51 138t98 212l410 867h354v-1481h-313v922q-20 -70 -46 -134.5t-55 -123.5l-323 -664h-354l-324 664q-59 117 -98 258v-922h-316z" />
<glyph unicode="N" horiz-adv-x="1890" d="M98 -2v1481h373l832 -904q74 -80 145 -194v1098h332v-1481h-416l-772 850q-63 70 -160 231v-1081h-334z" />
<glyph unicode="O" horiz-adv-x="1972" d="M90 444v588q0 92 36 174t96.5 141.5t141 94.5t171.5 35h903q90 0 171 -36t141 -96.5t96 -141.5t36 -171v-588q0 -90 -35 -170.5t-94 -141t-141 -96.5t-174 -36h-903q-92 0 -173 35t-141.5 95t-95.5 141t-35 173zM424 444q0 -47 32.5 -79.5t78.5 -32.5h903q47 0 78.5 32.5 t31.5 79.5v588q0 47 -31.5 80t-78.5 33h-903q-45 0 -78 -33t-33 -80v-588z" />
<glyph unicode="P" horiz-adv-x="1765" d="M90 -2v1479h1186q88 0 169 -36t141.5 -96.5t96 -141.5t35.5 -171v-145q0 -90 -34.5 -170t-95 -140.5t-140.5 -96.5t-172 -36h-854v-446h-332zM422 776h854q45 0 77.5 33t32.5 78v145q0 47 -32.5 80t-77.5 33h-854v-369z" />
<glyph unicode="Q" horiz-adv-x="1968" d="M104 444v588q0 92 36 174t96.5 141.5t140.5 94.5t170 35h889q88 0 169 -36t141 -96.5t96 -141.5t36 -171v-588q0 -154 -82 -263t-242 -140q18 -20 43 -50t54 -69l-215 -211q-12 14 -258 307q-41 -6 -62.5 -10t-49.5 -5t-76 -2t-142 -1h-301q-90 0 -171 35t-141.5 95 t-95.5 141t-35 173zM436 444q0 -47 32 -79.5t75 -32.5q104 0 167.5 -1t103.5 -2t65.5 -5.5t54.5 -10.5l-84 95l213 215l266 -310q70 12 113 23.5t65.5 25t30.5 33t8 49.5v588q0 47 -32.5 80t-77.5 33h-889q-45 0 -78 -33t-33 -80v-588z" />
<glyph unicode="R" horiz-adv-x="1867" d="M88 -2v1479h1268q92 0 172 -36t140.5 -96.5t95 -141.5t34.5 -171v-145q0 -90 -34.5 -170t-95 -140.5t-140.5 -96.5t-172 -36h-49l448 -444h-471l-424 444h-440v-446h-332zM420 776h936q45 0 77.5 33t32.5 78v145q0 47 -32.5 80t-77.5 33h-936v-369z" />
<glyph unicode="S" horiz-adv-x="1746" d="M63 1028q0 109 42 193t116 140t173.5 86t213.5 30h1014v-332h-1067q-68 0 -112 -34t-44 -87t43 -86t113 -33h578q123 0 225 -33.5t177 -95t117 -144.5t42 -181q0 -111 -43 -195t-119 -140.5t-178.5 -86t-220.5 -29.5h-1018v332h1079q61 0 105 30.5t44 88.5q0 57 -45 89.5 t-104 32.5h-586q-115 0 -214 30t-173 88.5t-116 142.5t-42 194z" />
<glyph unicode="T" horiz-adv-x="1542" d="M53 1147v332h1413v-332h-544v-1149h-332v1149h-537z" />
<glyph unicode="U" horiz-adv-x="1871" d="M100 444v1033h332v-1033q0 -47 33 -79.5t78 -32.5h809q45 0 77.5 32.5t32.5 79.5v1033h332v-1033q0 -90 -35 -170.5t-95 -141t-140 -96.5t-172 -36h-809q-90 0 -171 35t-141.5 95t-95.5 141t-35 173z" />
<glyph unicode="V" horiz-adv-x="1914" d="M10 1477h383l465 -920q94 -188 129 -295q16 53 48 127t79 168l465 920h385l-774 -1477h-406z" />
<glyph unicode="W" horiz-adv-x="2666" d="M20 1477h386l276 -820q31 -92 57.5 -189t55.5 -204q14 63 43.5 160.5t72.5 232.5l256 820h367l258 -820q20 -66 48 -162t67 -231q29 106 55.5 203.5t56.5 189.5l277 820h385l-531 -1477h-460l-338 989l-340 -989h-459z" />
<glyph unicode="X" horiz-adv-x="1875" d="M20 0l728 741l-728 736h455l461 -545l459 545h456l-729 -736l729 -741h-428l-487 545l-487 -545h-429z" />
<glyph unicode="Y" horiz-adv-x="1662" d="M8 1477h385l453 -723l454 723h386l-685 -1010v-469h-331v489z" />
<glyph unicode="Z" horiz-adv-x="1755" d="M100 -2v334l1123 815h-1123v332h1565v-332l-1124 -815h1126v-334h-1567z" />
<glyph unicode="[" horiz-adv-x="620" d="M90 -217v1833h430v-217h-215v-1399h215v-217h-430z" />
<glyph unicode="\" horiz-adv-x="915" d="M72 1477h200l596 -1477h-186z" />
<glyph unicode="]" horiz-adv-x="677" d="M143 0h215v1399h-215v217h428v-1833h-428v217z" />
<glyph unicode="^" horiz-adv-x="1603" d="M143 444v258q0 92 36 174t96.5 141.5t140.5 94.5t170 35h278q33 0 74 -11.5t80 -32t71.5 -46t51.5 -53.5v143h334v-1147q-90 96 -166 96q-29 0 -65 -15t-76 -32.5t-85 -33t-90 -15.5h-407q-90 0 -171 35t-141.5 95t-95.5 141t-35 173zM475 444q0 -47 33 -79.5t78 -32.5 h444q45 0 78 32.5t33 79.5v258q0 45 -33 78t-78 33h-444q-45 0 -78 -32.5t-33 -78.5v-258z" />
<glyph unicode="_" horiz-adv-x="903" d="M0 -205h903v-117h-903v117z" />
<glyph unicode="`" horiz-adv-x="593" d="M20 1534h224l166 -225h-168z" />
<glyph unicode="a" horiz-adv-x="1480" d="M70 326q0 76 25.5 139t72.5 108t112.5 71t145.5 26h469q53 0 103.5 -27t64.5 -72l-12 111q-16 139 -140 139h-739l37 326h682q102 0 191 -34t155 -97.5t102.5 -153.5t36.5 -200v-662q-106 0 -180 106q-23 -23 -61.5 -42t-87 -33.5t-102.5 -22.5t-105 -8h-432 q-74 0 -136.5 24.5t-106.5 68.5t-69.5 103.5t-25.5 129.5zM406 389q0 -39 18 -57.5t65 -18.5h381q70 0 123.5 29t53.5 68q0 55 -115 55h-424q-47 0 -74.5 -18.5t-27.5 -57.5z" />
<glyph unicode="b" horiz-adv-x="1449" d="M117 0v1534l334 111v-668q35 76 112.5 123t163.5 47h219q90 0 171 -36t141.5 -96.5t96.5 -141t36 -171.5v-258q0 -90 -35 -170.5t-94.5 -141t-141.5 -96.5t-174 -36h-348q-201 0 -315 96q-63 -70 -166 -96zM451 403q0 -71 67 -71h2h426q47 0 80 32.5t33 79.5v258 q0 45 -33 78t-80 33h-344q-63 0 -107 -41t-44 -110v-259z" />
<glyph unicode="c" horiz-adv-x="1380" d="M80 444v258q0 92 36 174t96 141.5t141 94.5t171 35h445q229 0 362 -189l-272 -192q-35 47 -90 47h-445q-45 0 -77.5 -32.5t-32.5 -78.5v-258q0 -47 32.5 -79.5t77.5 -32.5h445q88 0 137 92l246 -225q-61 -92 -161.5 -145.5t-211.5 -53.5h-455q-92 0 -173 35t-141 95 t-95 141t-35 173z" />
<glyph unicode="d" horiz-adv-x="1476" d="M106 444v258q0 92 36 174t96.5 141.5t141.5 94.5t171 35h203q188 0 278 -170v557l332 111v-1645q-90 20 -164 96q-133 -96 -317 -96h-332q-92 0 -173 35t-141.5 95t-95.5 141t-35 173zM440 444q0 -47 32 -79.5t79 -32.5h410q72 0 71 71v259q0 27 -12 54t-33.5 48.5 t-49.5 35t-58 13.5h-328q-45 0 -78 -32.5t-33 -78.5v-258z" />
<glyph unicode="e" horiz-adv-x="1478" d="M76 444v258q0 92 35.5 174t96 141.5t140.5 94.5t170 35h445q90 0 170.5 -36t141 -96.5t96.5 -141t36 -171.5v-223h-999v-35q0 -47 32.5 -82.5t77.5 -35.5h856l-41 -326h-815q-92 0 -173 35t-140.5 95t-94 141t-34.5 173zM408 666h665v55q0 45 -32.5 79t-77.5 34h-445 q-45 0 -77.5 -34t-32.5 -79v-55z" />
<glyph unicode="f" horiz-adv-x="724" d="M59 831l37 316h84q45 399 453 500l39 -310q-31 0 -60.5 -14t-54.5 -37.5t-40 -53.5t-15 -61q0 -4 4 -24h196l-36 -316h-158v-829h-334v829h-115z" />
<glyph unicode="g" horiz-adv-x="1497" d="M82 483v219q0 92 36 174t96 141.5t141 94.5t171 35h277q96 0 175 -48t103 -126v174h332v-989q0 -111 -49 -208t-133 -169t-196.5 -113t-239.5 -41q-33 0 -87.5 2t-140.5 6l45 279q20 -2 59.5 -8t86.5 -6q174 0 270 92t96 258q-94 -205 -395 -205h-203q-92 0 -173 34 t-141 93t-95 139t-35 172zM416 467q0 -45 32.5 -87t77.5 -42h289q125 0 195.5 62.5t70.5 168.5v72q0 74 -53 123t-139 49h-363q-45 0 -77.5 -32.5t-32.5 -78.5v-235z" />
<glyph unicode="h" horiz-adv-x="1501" d="M100 0v1534l332 111v-641q18 29 51 55t72 45.5t80 31t76 11.5h239q90 0 171 -36t141.5 -96.5t96.5 -141t36 -171.5v-702h-334v702q0 45 -33 78t-78 33h-366q-152 0 -152 -151v-662h-332z" />
<glyph unicode="i" horiz-adv-x="526" d="M96 0v1147h332v-1147h-332zM96 1380v209h332v-209h-332z" />
<glyph unicode="j" horiz-adv-x="565" d="M-309 -334l45 316q47 -8 85 -11.5t68 -3.5q61 0 103.5 16.5t69 54.5t39 100.5t12.5 156.5v852h331v-846q0 -152 -35.5 -274.5t-102 -210.5t-160 -136.5t-207.5 -48.5q-29 0 -89.5 9.5t-158.5 25.5zM113 1380v209h331v-209h-331z" />
<glyph unicode="k" horiz-adv-x="1376" d="M94 0v1534l332 111v-1135l545 637h397l-551 -588l545 -559h-418l-336 352l-182 -207v-145h-332z" />
<glyph unicode="l" horiz-adv-x="542" d="M96 0v1534l334 111v-1645h-334z" />
<glyph unicode="m" horiz-adv-x="2101" d="M104 0v1147h332v-184q37 98 104.5 141t135.5 43h129q104 0 182 -50t125 -167q29 106 111 161.5t192 55.5h150q90 0 167.5 -35t134 -95.5t89.5 -141t33 -173.5v-702h-332v702q0 45 -33 78t-80 33h-180q-152 0 -152 -151v-662h-331v702q0 45 -33 78t-80 33h-180 q-152 0 -152 -151v-662h-332z" />
<glyph unicode="n" horiz-adv-x="1505" d="M102 0v1147h332v-184q18 39 48 72.5t67 58t79 39t85 14.5h239q90 0 171 -36t141.5 -96.5t96.5 -141t36 -171.5v-702h-334v702q0 45 -33 78t-78 33h-364q-154 0 -154 -151v-662h-332z" />
<glyph unicode="o" horiz-adv-x="1507" d="M100 444v258q0 92 36 174t96.5 141.5t141.5 94.5t171 35h442q90 0 171 -36t141.5 -96.5t96.5 -141t36 -171.5v-258q0 -90 -35 -170.5t-94.5 -141t-141.5 -96.5t-174 -36h-442q-92 0 -173 35t-141.5 95t-95.5 141t-35 173zM434 444q0 -47 32 -79.5t79 -32.5h442 q47 0 79 32.5t32 79.5v258q0 45 -32 78t-79 33h-442q-47 0 -79 -32.5t-32 -78.5v-258z" />
<glyph unicode="p" horiz-adv-x="1554" d="M113 -371v1518h333v-174q14 33 44 64.5t68 56t81 39t84 14.5h276q92 0 173 -36t141.5 -97.5t95.5 -142t35 -169.5v-258q0 -90 -35 -170.5t-94.5 -141t-141 -96.5t-174.5 -36h-276q-41 0 -83 13.5t-81 36t-68.5 53t-44.5 67.5v-541h-333zM446 444q0 -47 32 -79.5t79 -32.5 h442q47 0 80 32.5t33 79.5v258q0 45 -32.5 78t-80.5 33h-442q-47 0 -79 -32.5t-32 -78.5v-258z" />
<glyph unicode="q" horiz-adv-x="1564" d="M104 444v258q0 90 36 171t96.5 141.5t140.5 96.5t170 36h278q215 0 277 -174v174h334v-1518h-334v541q-66 -170 -277 -170h-278q-90 0 -171 35t-141.5 95t-95.5 141t-35 173zM436 444q0 -47 33 -79.5t78 -32.5h444q45 0 78 32.5t33 79.5v258q0 45 -33 78t-78 33h-444 q-45 0 -78 -32.5t-33 -78.5v-258z" />
<glyph unicode="r" horiz-adv-x="843" d="M94 -2v1149h330v-170q39 98 104.5 142t163.5 44q29 0 64 -3t78 -13l-37 -330q-102 59 -176 60q-98 0 -145.5 -86t-47.5 -242v-551h-334z" />
<glyph unicode="s" horiz-adv-x="1396" d="M70 0l41 332h782q94 0 94 74q0 69 -91 69h-3h-383q-418 0 -418 309q0 86 38 154t104.5 114t155.5 70.5t194 24.5h700l-41 -334h-694q-92 0 -92 -70q0 -75 90 -75h2h375q434 -1 434 -314q0 -86 -35 -151.5t-96.5 -110.5t-144.5 -68.5t-177 -23.5h-835z" />
<glyph unicode="t" horiz-adv-x="802" d="M-6 813l37 334h112v276l332 111v-387h197l-37 -334h-160v-170q0 -96 7 -160.5t27.5 -104.5t56.5 -57.5t93 -17.5q61 0 101 35l-41 -330q-78 -37 -152 -37q-205 0 -314.5 172t-109.5 500v170h-149z" />
<glyph unicode="u" horiz-adv-x="1454" d="M96 444v703h334v-703q0 -47 32 -79.5t79 -32.5h413q66 0 66 88v727h334v-1147q-92 29 -154 102q-41 -35 -73.5 -55t-64.5 -30.5t-68 -13.5t-85 -3h-368q-92 0 -173 35t-141.5 95t-95.5 141t-35 173z" />
<glyph unicode="v" horiz-adv-x="1388" d="M0 1147h362l242 -590q16 -41 43 -120t64 -195q29 98 54.5 177t49.5 138l242 590h362l-508 -1147h-403z" />
<glyph unicode="w" horiz-adv-x="2060" d="M-33 1147h375l172 -590q14 -49 34.5 -123t45.5 -172q10 55 30.5 129t51.5 166l192 590h316l192 -590q29 -92 48.5 -166t31.5 -129q4 29 25.5 102.5t56.5 192.5l170 590h375l-369 -1147h-457l-174 512q-20 57 -33.5 117.5t-23.5 124.5q-8 -61 -22.5 -122t-34.5 -120 l-174 -512h-459z" />
<glyph unicode="x" horiz-adv-x="1425" d="M0 0l432 481q57 63 105 99q-16 12 -105 106l-432 459h387l242 -260q18 -18 37.5 -48t46.5 -65q20 31 40.5 58.5t43.5 54.5l239 260h389l-428 -463q-18 -20 -44.5 -47t-63.5 -55q20 -14 47 -40t61 -65l428 -475h-362l-266 281q-23 23 -48.5 55.5t-35.5 54.5 q-10 -23 -30.5 -49.5t-53.5 -60.5l-267 -281h-362z" />
<glyph unicode="y" horiz-adv-x="1646" d="M27 1147h364l428 -946l428 946h365l-596 -1147q-197 -381 -420 -381q-82 0 -166 17.5t-149 58.5l84 313q35 -25 91 -50.5t105 -25.5q37 0 81 11.5t65 33.5q-35 8 -73 39t-63 78z" />
<glyph unicode="z" horiz-adv-x="1302" d="M80 -2v334l758 512l-351 -21h-407v324h1139v-334l-738 -512l365 21h387v-324h-1153z" />
<glyph unicode="|" horiz-adv-x="464" d="M139 -295v1657h187v-1657h-187z" />
<glyph unicode="~" horiz-adv-x="3092" d="M242 586l2 110h137v58h-37v180h37v63h-37v76h899v-94q-14 27 -49 27q-94 0 -94 -158q0 -156 98 -156q31 0 64 39v-35h49v377h766v-53h69v53h738v-487h-2642zM244 754v180h39v-180h-39zM244 997v76h39v-76h-39zM403 823q0 -131 95 -131q29 0 51 17q0 -47 -57 -47h-31v-62 h43q113 12 112 145v252h-67v-186q0 -53 -41 -53q-39 0 -39 53v186h-66v-174zM639 600h68v115q14 -25 49 -25q94 0 94 156t-98 155q-29 0 -64 -40v36h-49v-397zM700 793v102q12 31 43 31q43 0 43 -78q0 -88 -45 -88q-29 0 -41 33zM864 844q0 -156 111 -156q112 0 112 156 q0 160 -112 160q-111 0 -111 -160zM932 844q0 84 43 84q45 0 45 -84q0 -82 -45 -82q-43 0 -43 82zM1163 846q0 88 45 88q27 0 39 -33v-104q-12 -29 -41 -29q-43 0 -43 78zM1329 774q0 -43 24.5 -64.5t67.5 -21.5q45 0 71 26.5t26 82.5h-31q-6 -39 -51 -39q-41 0 -41 28 q0 37 41 37h20v37h-20q-41 0 -41 35q0 33 41 33q35 0 51 -41h31v110h-31v-47q-23 53 -68 54q-88 0 -88 -89q0 -55 45 -73q-47 -18 -47 -68zM1540 696h90v58h-28v133q0 41 28 41q12 0 25 -13l22 68q-14 12 -35 16q-43 0 -63 -49v47h-39v-301zM1659 696h143v58h-39v125 q0 47 39 47q31 0 31 -47v-183h104v58h-39v125q0 45 39 45q31 0 31 -45v-183h68v193q0 111 -97 110q-49 0 -63 -49q-18 49 -57 49q-35 0 -56 -49v47h-65v-243h-39v-58zM2046 934h31v-238h69v301h-100v-63zM2163 844q0 -154 104 -154q74 0 92 119h-32q-6 -47 -52 -47 q-47 0 -47 82q0 84 47 84t52 -56h32v121h-32v-43q-25 53 -62 54q-102 0 -102 -160z" />
<glyph unicode="&#xa1;" horiz-adv-x="509" d="M80 301l94 563h148l92 -563v-690h-334v690zM80 1022v209h334v-209h-334z" />
<glyph unicode="&#xa8;" horiz-adv-x="747" d="M102 1323v209h191v-209h-191zM455 1323v209h190v-209h-190z" />
<glyph unicode="&#xa9;" horiz-adv-x="1300" d="M84 567q0 117 45 221.5t122 181.5t181.5 122t220.5 45q117 0 221.5 -45t181.5 -122t122 -181.5t45 -221.5t-45 -221t-122 -181t-181.5 -122t-221.5 -45t-221 45t-181 122t-122 181t-45 221zM152 565q0 -104 39.5 -196.5t107.5 -160t160 -107.5t196 -40t196.5 40 t161 107.5t108.5 160t40 196.5t-40 196.5t-108.5 162t-160.5 109.5t-197 40q-104 0 -196 -40t-160 -109.5t-107.5 -162t-39.5 -196.5zM360 559q0 76 19.5 141.5t56.5 113.5t90.5 74.5t118.5 26.5q160 0 236 -137l-107 -69q-53 74 -129 73q-72 0 -115 -59t-43 -164 q0 -98 46.5 -159.5t113.5 -61.5q35 0 69 17.5t58 45.5l103 -69q-78 -127 -232 -127q-61 0 -113.5 26.5t-90.5 74.5t-59.5 112.5t-21.5 140.5z" />
<glyph unicode="&#xab;" horiz-adv-x="1269" d="M72 737l454 461l152 -154l-303 -307l303 -307l-152 -154zM590 737l454 461l152 -154l-303 -307l303 -307l-152 -154z" />
<glyph unicode="&#xad;" horiz-adv-x="866" d="M92 578v333h662v-333h-662z" />
<glyph unicode="&#xae;" horiz-adv-x="1177" d="M125 1085q0 88 34 167t95 138.5t145 94.5t185 35q100 0 186 -34t148.5 -92.5t97.5 -137t35 -171.5q0 -86 -36 -163.5t-98.5 -137t-148.5 -95.5t-184 -36q-100 0 -184.5 36t-145.5 95.5t-95 137t-34 163.5zM211 1085q0 -66 25.5 -129t73.5 -112t117 -80t155 -31 q80 0 152.5 26.5t125.5 75t85 113t32 137.5q0 63 -29.5 127t-82 113t-125 80t-158.5 31t-155 -31t-117 -80t-73.5 -112.5t-25.5 -127.5zM440 844v469h168q66 0 106 -39t40 -111q0 -47 -18.5 -76.5t-59.5 -56.5l84 -186h-98l-80 172h-50v-172h-92zM532 1112h78q49 0 49 51 q0 55 -49 56h-78v-107z" />
<glyph unicode="&#xb4;" horiz-adv-x="595" d="M184 1309l168 225h223l-223 -225h-168z" />
<glyph unicode="&#xb8;" horiz-adv-x="514" d="M102 -299q18 -2 30.5 -3t19.5 -1q45 0 82.5 31.5t37.5 78.5q0 74 -86 74q-14 0 -20 -2l110 178h60l-49 -80q125 -26 125 -145q0 -41 -17.5 -73.5t-47.5 -56.5t-68.5 -37t-81.5 -13q-39 0 -95 6v43z" />
<glyph unicode="&#xbb;" horiz-adv-x="1269" d="M70 430l303 307l-303 307l151 154l455 -461l-455 -461zM588 430l303 307l-303 307l151 154l455 -461l-455 -461z" />
<glyph unicode="&#xbf;" horiz-adv-x="1396" d="M70 72q0 102 43 186t117.5 143.5t174 91t211.5 31.5q45 0 73 7.5t43.5 32t21.5 72.5t6 132h334v-115q0 -104 -37 -189t-105.5 -144.5t-166 -92t-218.5 -32.5q-68 0 -114.5 -33t-46.5 -90q0 -53 48 -86t109 -33h791v-332h-738q-115 0 -215 30t-173.5 87t-115.5 141 t-42 193zM760 887v209h334v-209h-334z" />
<glyph unicode="&#xc0;" d="M20 0l775 1477h405l774 -1477h-383l-164 332h-858l-163 -332h-386zM745 666h506q-106 193 -169 329q-62 137 -85 219q-45 -158 -252 -548zM772 1866h223l166 -226h-168z" />
<glyph unicode="&#xc1;" d="M20 0l775 1477h405l774 -1477h-383l-164 332h-858l-163 -332h-386zM745 666h506q-106 193 -169 329q-62 137 -85 219q-45 -158 -252 -548zM791 1640l167 226h224l-224 -226h-167z" />
<glyph unicode="&#xc2;" d="M20 0l775 1477h405l774 -1477h-383l-164 332h-858l-163 -332h-386zM717 1651l147 209h266l150 -209h-172l-113 133l-106 -133h-172zM745 666h506q-106 193 -169 329q-62 137 -85 219q-45 -158 -252 -548z" />
<glyph unicode="&#xc3;" d="M20 0l775 1477h405l774 -1477h-383l-164 332h-858l-163 -332h-386zM672 1683q4 86 52 136q48 49 110 49q37 0 77 -18q41 -17 82 -39t78 -38q37 -17 66 -18q57 0 67 111l92 -21q-4 -88 -50 -137t-111 -49q-33 0 -70 17t-76 39t-77 40t-70 19q-59 0 -78 -111zM745 666h506 q-106 193 -169 329q-62 137 -85 219q-45 -158 -252 -548z" />
<glyph unicode="&#xc4;" d="M20 0l775 1477h405l774 -1477h-383l-164 332h-858l-163 -332h-386zM725 1655v209h190v-209h-190zM745 666h506q-106 193 -169 329q-62 137 -85 219q-45 -158 -252 -548zM1077 1655v209h191v-209h-191z" />
<glyph unicode="&#xc5;" d="M20 0l775 1477h405l774 -1477h-383l-164 332h-858l-163 -332h-386zM745 666h506q-106 193 -169 329q-62 137 -85 219q-45 -158 -252 -548zM807 1753q0 37 15 70t42 56q27 24 62 37t73 13q76 0 134 -50q57 -50 57 -126q0 -78 -56 -128t-135 -50q-78 0 -135 50t-57 128z M877 1753q0 -49 35 -81q36 -32 87 -32q47 0 84 32t37 81q0 47 -37 80t-84 33q-51 0 -87 -32t-35 -81z" />
<glyph unicode="&#xc6;" horiz-adv-x="2537" d="M25 0l774 1477h1655v-330h-1176v-236h1139v-333h-1139v-246h1176v-334h-1453v334h-430l-163 -332h-383zM748 666h253v548z" />
<glyph unicode="&#xc7;" horiz-adv-x="1904" d="M104 444v588q0 92 36 174t97 142q60 59 140 94t170 35h926q117 0 216 -55q99 -54 146 -138l-279 -203q-14 63 -83 64h-926q-45 0 -78 -33t-33 -80v-588q0 -47 33 -79q33 -33 78 -33h926q59 0 137 92l245 -223q-37 -41 -85 -78t-99 -65t-102 -43t-96 -15h-926 q-90 0 -171 35t-142 95q-60 60 -95 141t-35 173zM797 -299q18 -2 30 -3t19 -1q45 0 83 32t38 78q0 74 -86 74q-14 0 -21 -2l111 178h59l-49 -80q125 -26 125 -145q0 -41 -17 -74t-48 -56q-30 -24 -68 -37q-39 -13 -82 -13q-39 0 -94 6v43z" />
<glyph unicode="&#xc8;" horiz-adv-x="1640" d="M92 -2v1481h1473v-332h-1139v-236h1102v-333h-1102v-246h1139v-334h-1473zM625 1866h223l166 -226h-168z" />
<glyph unicode="&#xc9;" horiz-adv-x="1640" d="M92 -2v1481h1473v-332h-1139v-236h1102v-333h-1102v-246h1139v-334h-1473zM625 1640l168 226h223l-223 -226h-168z" />
<glyph unicode="&#xca;" horiz-adv-x="1640" d="M92 -2v1481h1473v-332h-1139v-236h1102v-333h-1102v-246h1139v-334h-1473zM539 1651l147 209h266l150 -209h-172l-113 133l-106 -133h-172z" />
<glyph unicode="&#xcb;" horiz-adv-x="1640" d="M92 -2v1481h1473v-332h-1139v-236h1102v-333h-1102v-246h1139v-334h-1473zM549 1655v209h190v-209h-190zM901 1655v209h191v-209h-191z" />
<glyph unicode="&#xcc;" horiz-adv-x="540" d="M76 1866h223l166 -226h-168zM104 -2v1481h334v-1481h-334z" />
<glyph unicode="&#xcd;" horiz-adv-x="540" d="M80 1640l168 226h223l-223 -226h-168zM104 -2v1481h334v-1481h-334z" />
<glyph unicode="&#xce;" horiz-adv-x="540" d="M-6 1651l147 209h267l149 -209h-172l-113 133l-106 -133h-172zM104 -2v1481h334v-1481h-334z" />
<glyph unicode="&#xcf;" horiz-adv-x="540" d="M4 1655v209h191v-209h-191zM104 -2v1481h334v-1481h-334zM356 1655v209h191v-209h-191z" />
<glyph unicode="&#xd1;" horiz-adv-x="1890" d="M98 -2v1481h373l832 -904q74 -80 145 -194v1098h332v-1481h-416l-772 850q-63 70 -160 231v-1081h-334zM633 1683q4 86 52 136q48 49 110 49q37 0 77 -18q41 -17 82 -39t78 -38q37 -17 66 -18q57 0 67 111l92 -21q-4 -88 -50 -137t-111 -49q-33 0 -70 17t-76 39t-77 40 t-70 19q-59 0 -78 -111z" />
<glyph unicode="&#xd2;" horiz-adv-x="1972" d="M90 444v588q0 92 36 174t96 142q60 59 142 94q81 35 171 35h903q90 0 171 -36t141 -96t96 -142q36 -81 36 -171v-588q0 -90 -35 -171t-94 -141t-141 -96t-174 -36h-903q-92 0 -174 35q-81 35 -141 95t-95 141t-35 173zM424 444q0 -47 33 -79q33 -33 78 -33h903 q47 0 79 33t31 79v588q0 47 -31 80q-32 33 -79 33h-903q-45 0 -78 -33t-33 -80v-588zM791 1866h223l166 -226h-168z" />
<glyph unicode="&#xd3;" horiz-adv-x="1972" d="M90 444v588q0 92 36 174t96 142q60 59 142 94q81 35 171 35h903q90 0 171 -36t141 -96t96 -142q36 -81 36 -171v-588q0 -90 -35 -171t-94 -141t-141 -96t-174 -36h-903q-92 0 -174 35q-81 35 -141 95t-95 141t-35 173zM424 444q0 -47 33 -79q33 -33 78 -33h903 q47 0 79 33t31 79v588q0 47 -31 80q-32 33 -79 33h-903q-45 0 -78 -33t-33 -80v-588zM791 1640l167 226h224l-224 -226h-167z" />
<glyph unicode="&#xd4;" horiz-adv-x="1972" d="M90 444v588q0 92 36 174t96 142q60 59 142 94q81 35 171 35h903q90 0 171 -36t141 -96t96 -142q36 -81 36 -171v-588q0 -90 -35 -171t-94 -141t-141 -96t-174 -36h-903q-92 0 -174 35q-81 35 -141 95t-95 141t-35 173zM424 444q0 -47 33 -79q33 -33 78 -33h903 q47 0 79 33t31 79v588q0 47 -31 80q-32 33 -79 33h-903q-45 0 -78 -33t-33 -80v-588zM705 1651l147 209h266l150 -209h-172l-113 133l-106 -133h-172z" />
<glyph unicode="&#xd5;" horiz-adv-x="1972" d="M90 444v588q0 92 36 174t96 142q60 59 142 94q81 35 171 35h903q90 0 171 -36t141 -96t96 -142q36 -81 36 -171v-588q0 -90 -35 -171t-94 -141t-141 -96t-174 -36h-903q-92 0 -174 35q-81 35 -141 95t-95 141t-35 173zM424 444q0 -47 33 -79q33 -33 78 -33h903 q47 0 79 33t31 79v588q0 47 -31 80q-32 33 -79 33h-903q-45 0 -78 -33t-33 -80v-588zM674 1683q4 86 52 136q48 49 110 49q37 0 77 -18q41 -17 82 -39t78 -38q37 -17 66 -18q57 0 67 111l92 -21q-4 -88 -50 -137t-111 -49q-33 0 -70 17t-76 39t-77 40t-70 19q-59 0 -78 -111 z" />
<glyph unicode="&#xd6;" horiz-adv-x="1972" d="M90 444v588q0 92 36 174t96 142q60 59 142 94q81 35 171 35h903q90 0 171 -36t141 -96t96 -142q36 -81 36 -171v-588q0 -90 -35 -171t-94 -141t-141 -96t-174 -36h-903q-92 0 -174 35q-81 35 -141 95t-95 141t-35 173zM424 444q0 -47 33 -79q33 -33 78 -33h903 q47 0 79 33t31 79v588q0 47 -31 80q-32 33 -79 33h-903q-45 0 -78 -33t-33 -80v-588zM715 1655v209h190v-209h-190zM1067 1655v209h190v-209h-190z" />
<glyph unicode="&#xd8;" horiz-adv-x="1972" d="M117 444v588q0 92 35.5 174t96 141.5t141.5 94.5t171 35h903q90 0 171 -36t141.5 -96.5t96.5 -141.5t36 -171v-588q0 -90 -35 -170.5t-94.5 -141t-141.5 -96.5t-174 -36h-903q-92 0 -173 35t-141.5 95t-95 141t-34.5 173zM451 444q0 -47 32.5 -79.5t77.5 -32.5h182 l328 813h-510q-45 0 -77.5 -33t-32.5 -80v-588zM934 332h530q47 0 79 32.5t32 79.5v588q0 47 -32 80t-79 33h-194z" />
<glyph unicode="&#xd9;" horiz-adv-x="1871" d="M100 444v1033h332v-1033q0 -47 33 -79q33 -33 78 -33h809q45 0 78 33t32 79v1033h332v-1033q0 -90 -35 -171t-95 -141t-140 -96t-172 -36h-809q-90 0 -171 35t-142 95q-60 60 -95 141t-35 173zM741 1866h224l165 -226h-167z" />
<glyph unicode="&#xda;" horiz-adv-x="1871" d="M100 444v1033h332v-1033q0 -47 33 -79q33 -33 78 -33h809q45 0 78 33t32 79v1033h332v-1033q0 -90 -35 -171t-95 -141t-140 -96t-172 -36h-809q-90 0 -171 35t-142 95q-60 60 -95 141t-35 173zM739 1640l168 226h223l-223 -226h-168z" />
<glyph unicode="&#xdb;" horiz-adv-x="1871" d="M100 444v1033h332v-1033q0 -47 33 -79q33 -33 78 -33h809q45 0 78 33t32 79v1033h332v-1033q0 -90 -35 -171t-95 -141t-140 -96t-172 -36h-809q-90 0 -171 35t-142 95q-60 60 -95 141t-35 173zM653 1651l148 209h266l150 -209h-173l-112 133l-107 -133h-172z" />
<glyph unicode="&#xdc;" horiz-adv-x="1871" d="M100 444v1033h332v-1033q0 -47 33 -79q33 -33 78 -33h809q45 0 78 33t32 79v1033h332v-1033q0 -90 -35 -171t-95 -141t-140 -96t-172 -36h-809q-90 0 -171 35t-142 95q-60 60 -95 141t-35 173zM664 1655v209h190v-209h-190zM1016 1655v209h190v-209h-190z" />
<glyph unicode="&#xdd;" horiz-adv-x="1662" d="M8 1477h385l453 -723l454 723h386l-685 -1010v-469h-331v489zM635 1640l168 226h223l-223 -226h-168z" />
<glyph unicode="&#xdf;" horiz-adv-x="1415" d="M-334 -336l45 330q80 -14 124 -21.5t54 -7.5q57 0 95.5 18.5t61 66.5t32.5 129t10 208v709q0 68 37 136t96.5 123.5t137 89.5t157.5 34h410q92 0 171 -30t136 -84t89 -129t32 -167q0 -49 -13.5 -98t-37 -92t-55 -75t-70.5 -44q86 -33 138 -120t52 -198q0 -90 -35 -171 t-95 -141t-140 -96t-172 -36h-363l41 334h322q51 0 80.5 37t29.5 88q0 53 -29.5 89t-80.5 36h-35q-68 0 -109 44t-41 113q0 70 41 124.5t109 54.5h35q49 0 78.5 31.5t29.5 80.5t-29.5 82t-78.5 33h-301q-86 0 -145.5 -56.5t-59.5 -154.5v-485q0 -424 -123 -622t-383 -198 q-29 0 -89.5 9.5t-158.5 25.5z" />
<glyph unicode="&#xe0;" horiz-adv-x="1480" d="M70 326q0 76 25 139q26 63 73 108t113 71t145 26h469q53 0 103 -27t65 -72l-12 111q-16 139 -140 139h-739l37 326h682q102 0 191 -34t155 -97t102 -154q37 -90 37 -200v-662q-106 0 -180 106q-23 -23 -61 -41q-39 -19 -87 -34q-48 -14 -103 -23q-54 -8 -105 -8h-432 q-74 0 -137 25q-62 25 -106 68q-44 44 -70 104q-26 59 -25 129zM406 389q0 -39 18 -57t65 -19h381q70 0 123 29q54 29 54 68q0 55 -115 55h-424q-47 0 -75 -19q-28 -18 -27 -57zM545 1534h223l166 -225h-168z" />
<glyph unicode="&#xe1;" horiz-adv-x="1480" d="M70 326q0 76 25 139q26 63 73 108t113 71t145 26h469q53 0 103 -27t65 -72l-12 111q-16 139 -140 139h-739l37 326h682q102 0 191 -34t155 -97t102 -154q37 -90 37 -200v-662q-106 0 -180 106q-23 -23 -61 -41q-39 -19 -87 -34q-48 -14 -103 -23q-54 -8 -105 -8h-432 q-74 0 -137 25q-62 25 -106 68q-44 44 -70 104q-26 59 -25 129zM406 389q0 -39 18 -57t65 -19h381q70 0 123 29q54 29 54 68q0 55 -115 55h-424q-47 0 -75 -19q-28 -18 -27 -57zM545 1309l168 225h223l-223 -225h-168z" />
<glyph unicode="&#xe2;" horiz-adv-x="1480" d="M70 326q0 76 25 139q26 63 73 108t113 71t145 26h469q53 0 103 -27t65 -72l-12 111q-16 139 -140 139h-739l37 326h682q102 0 191 -34t155 -97t102 -154q37 -90 37 -200v-662q-106 0 -180 106q-23 -23 -61 -41q-39 -19 -87 -34q-48 -14 -103 -23q-54 -8 -105 -8h-432 q-74 0 -137 25q-62 25 -106 68q-44 44 -70 104q-26 59 -25 129zM406 389q0 -39 18 -57t65 -19h381q70 0 123 29q54 29 54 68q0 55 -115 55h-424q-47 0 -75 -19q-28 -18 -27 -57zM459 1319l147 209h266l150 -209h-172l-113 133l-106 -133h-172z" />
<glyph unicode="&#xe3;" horiz-adv-x="1480" d="M70 326q0 76 25 139q26 63 73 108t113 71t145 26h469q53 0 103 -27t65 -72l-12 111q-16 139 -140 139h-739l37 326h682q102 0 191 -34t155 -97t102 -154q37 -90 37 -200v-662q-106 0 -180 106q-23 -23 -61 -41q-39 -19 -87 -34q-48 -14 -103 -23q-54 -8 -105 -8h-432 q-74 0 -137 25q-62 25 -106 68q-44 44 -70 104q-26 59 -25 129zM406 389q0 -39 18 -57t65 -19h381q70 0 123 29q54 29 54 68q0 55 -115 55h-424q-47 0 -75 -19q-28 -18 -27 -57zM428 1352q4 86 52 135t110 49q37 0 78 -17t82 -39t77 -39q37 -17 66 -18q57 0 68 111l92 -21 q-4 -88 -51 -137q-46 -49 -111 -49q-33 0 -70 18q-37 17 -76 38q-39 22 -76 40q-38 18 -71 19q-59 0 -78 -111z" />
<glyph unicode="&#xe4;" horiz-adv-x="1480" d="M70 326q0 76 25 139q26 63 73 108t113 71t145 26h469q53 0 103 -27t65 -72l-12 111q-16 139 -140 139h-739l37 326h682q102 0 191 -34t155 -97t102 -154q37 -90 37 -200v-662q-106 0 -180 106q-23 -23 -61 -41q-39 -19 -87 -34q-48 -14 -103 -23q-54 -8 -105 -8h-432 q-74 0 -137 25q-62 25 -106 68q-44 44 -70 104q-26 59 -25 129zM406 389q0 -39 18 -57t65 -19h381q70 0 123 29q54 29 54 68q0 55 -115 55h-424q-47 0 -75 -19q-28 -18 -27 -57zM469 1323v209h190v-209h-190zM821 1323v209h191v-209h-191z" />
<glyph unicode="&#xe5;" horiz-adv-x="1480" d="M70 326q0 76 25 139q26 63 73 108t113 71t145 26h469q53 0 103 -27t65 -72l-12 111q-16 139 -140 139h-739l37 326h682q102 0 191 -34t155 -97t102 -154q37 -90 37 -200v-662q-106 0 -180 106q-23 -23 -61 -41q-39 -19 -87 -34q-48 -14 -103 -23q-54 -8 -105 -8h-432 q-74 0 -137 25q-62 25 -106 68q-44 44 -70 104q-26 59 -25 129zM406 389q0 -39 18 -57t65 -19h381q70 0 123 29q54 29 54 68q0 55 -115 55h-424q-47 0 -75 -19q-28 -18 -27 -57zM549 1421q0 37 15 70t42 56q27 24 62 37t73 13q76 0 133 -50q58 -50 58 -126q0 -78 -56 -128 t-135 -50q-78 0 -135 50t-57 128zM618 1421q0 -49 36 -81t87 -31q47 0 84 31q37 32 37 81q0 47 -37 80t-84 33q-51 0 -87 -32t-36 -81z" />
<glyph unicode="&#xe6;" horiz-adv-x="2002" d="M39 334q0 74 26.5 136t74.5 106.5t112.5 69t142.5 24.5h307q66 0 107 -37v49q0 139 -131 139h-537l37 326h479q47 0 96.5 -7t93.5 -21.5t77.5 -34t52.5 -46.5q14 27 46 46.5t73 34t86 21.5t84 7h239q90 0 171 -36t141.5 -96.5t96.5 -141t36 -171.5v-227h-795v-31 q0 -47 33 -82.5t78 -35.5h651l-41 -326h-610q-72 0 -121 6t-84 18.5t-57.5 33t-40.5 48.5q-16 -25 -53.5 -44t-86.5 -33.5t-106.5 -21.5t-112.5 -7h-227q-74 0 -136.5 24.5t-107.5 69.5t-69.5 106.5t-24.5 133.5zM377 387q0 -74 82 -74h178q131 0 172 72v41q-45 39 -111 39 h-221q-100 0 -100 -78zM1155 680h461v41q0 45 -33 77.5t-78 32.5h-239q-45 0 -78 -32.5t-33 -77.5v-41z" />
<glyph unicode="&#xe7;" horiz-adv-x="1380" d="M80 444v258q0 92 36 175q36 82 96 141t141 94t171 35h445q229 0 362 -189l-272 -192q-35 47 -90 47h-445q-45 0 -78 -33t-32 -78v-258q0 -47 32 -79q33 -33 78 -33h445q88 0 137 92l246 -225q-61 -92 -162 -146q-100 -53 -211 -53h-455q-92 0 -173 35t-141 95t-95 141 t-35 173zM535 -299q18 -2 30 -3t19 -1q45 0 83 32t38 78q0 74 -87 74q-14 0 -20 -2l111 178h59l-49 -80q125 -26 125 -145q0 -41 -18 -74q-17 -33 -47 -56q-30 -24 -68 -37q-39 -13 -82 -13q-39 0 -94 6v43z" />
<glyph unicode="&#xe8;" horiz-adv-x="1478" d="M76 444v258q0 92 36 175q36 82 96 141t140 94t170 35h445q90 0 171 -36t141 -96t96 -142q36 -81 36 -171v-223h-999v-35q0 -47 32 -83q33 -36 78 -35h856l-41 -326h-815q-92 0 -173 35t-140 95t-94 141t-35 173zM408 666h665v55q0 45 -33 79t-77 34h-445q-45 0 -78 -34 t-32 -79v-55zM545 1534h223l166 -225h-168z" />
<glyph unicode="&#xe9;" horiz-adv-x="1478" d="M76 444v258q0 92 36 175q36 82 96 141t140 94t170 35h445q90 0 171 -36t141 -96t96 -142q36 -81 36 -171v-223h-999v-35q0 -47 32 -83q33 -36 78 -35h856l-41 -326h-815q-92 0 -173 35t-140 95t-94 141t-35 173zM408 666h665v55q0 45 -33 79t-77 34h-445q-45 0 -78 -34 t-32 -79v-55zM543 1309l168 225h223l-223 -225h-168z" />
<glyph unicode="&#xea;" horiz-adv-x="1478" d="M76 444v258q0 92 36 175q36 82 96 141t140 94t170 35h445q90 0 171 -36t141 -96t96 -142q36 -81 36 -171v-223h-999v-35q0 -47 32 -83q33 -36 78 -35h856l-41 -326h-815q-92 0 -173 35t-140 95t-94 141t-35 173zM408 666h665v55q0 45 -33 79t-77 34h-445q-45 0 -78 -34 t-32 -79v-55zM457 1319l147 209h266l150 -209h-172l-113 133l-106 -133h-172z" />
<glyph unicode="&#xeb;" horiz-adv-x="1478" d="M76 444v258q0 92 36 175q36 82 96 141t140 94t170 35h445q90 0 171 -36t141 -96t96 -142q36 -81 36 -171v-223h-999v-35q0 -47 32 -83q33 -36 78 -35h856l-41 -326h-815q-92 0 -173 35t-140 95t-94 141t-35 173zM408 666h665v55q0 45 -33 79t-77 34h-445q-45 0 -78 -34 t-32 -79v-55zM467 1323v209h190v-209h-190zM819 1323v209h191v-209h-191z" />
<glyph unicode="&#xec;" horiz-adv-x="526" d="M68 1534h223l166 -225h-168zM96 0v1147h332v-1147h-332z" />
<glyph unicode="&#xed;" horiz-adv-x="526" d="M72 1309l168 225h223l-223 -225h-168zM96 0v1147h332v-1147h-332z" />
<glyph unicode="&#xee;" horiz-adv-x="526" d="M-14 1319l147 209h266l150 -209h-172l-113 133l-106 -133h-172zM96 0v1147h332v-1147h-332z" />
<glyph unicode="&#xef;" horiz-adv-x="526" d="M-4 1323v209h190v-209h-190zM96 0v1147h332v-1147h-332zM348 1323v209h191v-209h-191z" />
<glyph unicode="&#xf1;" horiz-adv-x="1505" d="M102 0v1147h332v-184q18 39 48 72q30 34 67 59t79 39t85 14h239q90 0 171 -36t142 -96q60 -60 96 -142q36 -81 36 -171v-702h-334v702q0 45 -33 78t-78 33h-364q-154 0 -154 -151v-662h-332zM440 1352q4 86 53 135q48 49 109 49q37 0 78 -17t82 -39t78 -39t65 -18 q57 0 68 111l92 -21q-4 -88 -50 -137t-112 -49q-33 0 -69 18q-37 17 -76 38q-39 22 -77 40t-71 19q-59 0 -78 -111z" />
<glyph unicode="&#xf2;" horiz-adv-x="1507" d="M100 444v258q0 92 36 175q36 82 96 141t142 94q81 35 171 35h442q90 0 171 -36t141 -96t97 -142q36 -81 36 -171v-258q0 -90 -35 -171t-94 -141t-142 -96q-82 -36 -174 -36h-442q-92 0 -173 35t-142 95q-60 60 -95 141t-35 173zM434 444q0 -47 32 -79q32 -33 79 -33h442 q47 0 79 33t32 79v258q0 45 -32 78t-79 33h-442q-47 0 -79 -33t-32 -78v-258zM559 1534h223l166 -225h-168z" />
<glyph unicode="&#xf3;" horiz-adv-x="1507" d="M100 444v258q0 92 36 175q36 82 96 141t142 94q81 35 171 35h442q90 0 171 -36t141 -96t97 -142q36 -81 36 -171v-258q0 -90 -35 -171t-94 -141t-142 -96q-82 -36 -174 -36h-442q-92 0 -173 35t-142 95q-60 60 -95 141t-35 173zM434 444q0 -47 32 -79q32 -33 79 -33h442 q47 0 79 33t32 79v258q0 45 -32 78t-79 33h-442q-47 0 -79 -33t-32 -78v-258zM557 1309l168 225h223l-223 -225h-168z" />
<glyph unicode="&#xf4;" horiz-adv-x="1507" d="M100 444v258q0 92 36 175q36 82 96 141t142 94q81 35 171 35h442q90 0 171 -36t141 -96t97 -142q36 -81 36 -171v-258q0 -90 -35 -171t-94 -141t-142 -96q-82 -36 -174 -36h-442q-92 0 -173 35t-142 95q-60 60 -95 141t-35 173zM434 444q0 -47 32 -79q32 -33 79 -33h442 q47 0 79 33t32 79v258q0 45 -32 78t-79 33h-442q-47 0 -79 -33t-32 -78v-258zM471 1319l147 209h267l149 -209h-172l-112 133l-107 -133h-172z" />
<glyph unicode="&#xf5;" horiz-adv-x="1507" d="M100 444v258q0 92 36 175q36 82 96 141t142 94q81 35 171 35h442q90 0 171 -36t141 -96t97 -142q36 -81 36 -171v-258q0 -90 -35 -171t-94 -141t-142 -96q-82 -36 -174 -36h-442q-92 0 -173 35t-142 95q-60 60 -95 141t-35 173zM434 444q0 -47 32 -79q32 -33 79 -33h442 q47 0 79 33t32 79v258q0 45 -32 78t-79 33h-442q-47 0 -79 -33t-32 -78v-258zM440 1352q4 86 53 135q48 49 109 49q37 0 78 -17t82 -39t78 -39t65 -18q57 0 68 111l92 -21q-4 -88 -50 -137t-112 -49q-33 0 -69 18q-37 17 -76 38q-39 22 -77 40t-71 19q-59 0 -78 -111z" />
<glyph unicode="&#xf6;" horiz-adv-x="1507" d="M100 444v258q0 92 36 175q36 82 96 141t142 94q81 35 171 35h442q90 0 171 -36t141 -96t97 -142q36 -81 36 -171v-258q0 -90 -35 -171t-94 -141t-142 -96q-82 -36 -174 -36h-442q-92 0 -173 35t-142 95q-60 60 -95 141t-35 173zM434 444q0 -47 32 -79q32 -33 79 -33h442 q47 0 79 33t32 79v258q0 45 -32 78t-79 33h-442q-47 0 -79 -33t-32 -78v-258zM481 1323v209h191v-209h-191zM834 1323v209h190v-209h-190z" />
<glyph unicode="&#xf8;" horiz-adv-x="1509" d="M92 444v258q0 92 36 174t96.5 141.5t141 94.5t171.5 35h442q90 0 171 -36t141.5 -96.5t96 -141t35.5 -171.5v-258q0 -90 -34.5 -170.5t-94 -141t-141.5 -96.5t-174 -36h-442q-92 0 -173 35t-141.5 95t-95.5 141t-35 173zM426 444q0 -41 21.5 -69.5t56.5 -38.5l284 477 h-251q-47 0 -79 -32.5t-32 -78.5v-258zM672 332h307q47 0 80 32.5t33 79.5v258q0 45 -33 78t-80 33h-14z" />
<glyph unicode="&#xf9;" horiz-adv-x="1454" d="M96 444v703h334v-703q0 -47 32 -79q32 -33 79 -33h413q66 0 66 88v727h334v-1147q-92 29 -154 102q-41 -35 -74 -55t-64 -31q-32 -10 -68 -13t-85 -3h-368q-92 0 -173 35t-142 95q-60 60 -95 141t-35 173zM532 1534h224l166 -225h-168z" />
<glyph unicode="&#xfa;" horiz-adv-x="1454" d="M96 444v703h334v-703q0 -47 32 -79q32 -33 79 -33h413q66 0 66 88v727h334v-1147q-92 29 -154 102q-41 -35 -74 -55t-64 -31q-32 -10 -68 -13t-85 -3h-368q-92 0 -173 35t-142 95q-60 60 -95 141t-35 173zM530 1309l168 225h224l-224 -225h-168z" />
<glyph unicode="&#xfb;" horiz-adv-x="1454" d="M96 444v703h334v-703q0 -47 32 -79q32 -33 79 -33h413q66 0 66 88v727h334v-1147q-92 29 -154 102q-41 -35 -74 -55t-64 -31q-32 -10 -68 -13t-85 -3h-368q-92 0 -173 35t-142 95q-60 60 -95 141t-35 173zM444 1319l148 209h266l150 -209h-172l-113 133l-107 -133h-172z " />
<glyph unicode="&#xfc;" horiz-adv-x="1454" d="M96 444v703h334v-703q0 -47 32 -79q32 -33 79 -33h413q66 0 66 88v727h334v-1147q-92 29 -154 102q-41 -35 -74 -55t-64 -31q-32 -10 -68 -13t-85 -3h-368q-92 0 -173 35t-142 95q-60 60 -95 141t-35 173zM455 1323v209h190v-209h-190zM807 1323v209h190v-209h-190z" />
<glyph unicode="&#xfd;" horiz-adv-x="1646" d="M27 1147h364l428 -946l428 946h365l-596 -1147q-197 -381 -420 -381q-82 0 -166 17t-149 59l84 313q35 -25 91 -50q56 -26 105 -26q37 0 81 12q44 11 65 33q-35 8 -73 39t-63 78zM627 1309l168 225h223l-223 -225h-168z" />
<glyph unicode="&#xff;" horiz-adv-x="1646" d="M27 1147h364l428 -946l428 946h365l-596 -1147q-197 -381 -420 -381q-82 0 -166 17t-149 59l84 313q35 -25 91 -50q56 -26 105 -26q37 0 81 12q44 11 65 33q-35 8 -73 39t-63 78zM551 1323v209h190v-209h-190zM903 1323v209h191v-209h-191z" />
<glyph unicode="&#x152;" horiz-adv-x="2277" d="M84 444v588q0 92 36 174t96 141.5t140 94.5t170 35h494q76 0 113 -56v58h1062v-332h-731v-236h695v-333h-695v-246h731v-334h-1062v57q-47 -55 -113 -55h-494q-92 0 -172 36t-140 96.5t-95 141t-35 170.5zM416 444q0 -47 32.5 -79.5t77.5 -32.5h494q47 0 80 32.5t33 79.5 v588q0 47 -33 80t-80 33h-494q-45 0 -77.5 -33t-32.5 -80v-588z" />
<glyph unicode="&#x153;" horiz-adv-x="2082" d="M92 444v258q0 92 36 174t96.5 141.5t140 94.5t170.5 35h239q160 0 279 -100q119 100 278 100h240q88 0 169 -36t141.5 -96.5t96 -141t35.5 -171.5v-227h-792v-31q0 -47 32.5 -82.5t77.5 -35.5h651l-40 -326h-611q-160 0 -278 98q-123 -98 -279 -98h-239q-90 0 -171 35 t-141.5 95t-95.5 141t-35 173zM424 444q0 -47 32.5 -79.5t78.5 -32.5h239q45 0 78 32.5t33 79.5v258q0 45 -33 78t-78 33h-239q-45 0 -78 -32.5t-33 -78.5v-258zM1221 680h460v41q0 45 -32.5 77.5t-77.5 32.5h-240q-45 0 -77.5 -32.5t-32.5 -77.5v-41z" />
<glyph unicode="&#x178;" horiz-adv-x="1662" d="M8 1477h385l453 -723l454 723h386l-685 -1010v-469h-331v489zM559 1655v209h191v-209h-191zM911 1655v209h191v-209h-191z" />
<glyph unicode="&#x2c6;" horiz-adv-x="768" d="M102 1319l148 209h266l150 -209h-172l-113 133l-107 -133h-172z" />
<glyph unicode="&#x2dc;" horiz-adv-x="829" d="M102 1352q4 86 52.5 135t109.5 49q37 0 78 -17.5t82 -39t78 -39t65 -17.5q57 0 68 111l92 -21q-4 -88 -50 -137t-112 -49q-33 0 -69.5 17.5t-75.5 39t-77 40t-71 18.5q-59 0 -77 -111z" />
<glyph unicode="&#x2000;" horiz-adv-x="964" />
<glyph unicode="&#x2001;" horiz-adv-x="1929" />
<glyph unicode="&#x2002;" horiz-adv-x="964" />
<glyph unicode="&#x2003;" horiz-adv-x="1929" />
<glyph unicode="&#x2004;" horiz-adv-x="643" />
<glyph unicode="&#x2005;" horiz-adv-x="482" />
<glyph unicode="&#x2006;" horiz-adv-x="321" />
<glyph unicode="&#x2007;" horiz-adv-x="321" />
<glyph unicode="&#x2008;" horiz-adv-x="241" />
<glyph unicode="&#x2009;" horiz-adv-x="385" />
<glyph unicode="&#x200a;" horiz-adv-x="107" />
<glyph unicode="&#x2010;" horiz-adv-x="866" d="M92 578v333h662v-333h-662z" />
<glyph unicode="&#x2011;" horiz-adv-x="866" d="M92 578v333h662v-333h-662z" />
<glyph unicode="&#x2012;" horiz-adv-x="866" d="M92 578v333h662v-333h-662z" />
<glyph unicode="&#x2013;" horiz-adv-x="1536" d="M82 578v327h1362v-327h-1362z" />
<glyph unicode="&#x2014;" horiz-adv-x="3067" d="M92 578v333h2867v-333h-2867z" />
<glyph unicode="&#x2018;" horiz-adv-x="456" d="M41 1178v208l176 246l102 -53q-72 -102 -71 -141q0 -51 127 -52v-208h-334z" />
<glyph unicode="&#x2019;" horiz-adv-x="456" d="M41 1380v209h332v-209l-176 -245l-101 53q70 100 70 141q0 51 -125 51z" />
<glyph unicode="&#x201a;" horiz-adv-x="456" d="M41 0v209h332v-209l-176 -246l-101 53q70 100 70 142q0 51 -125 51z" />
<glyph unicode="&#x201c;" horiz-adv-x="894" d="M41 1178v208l176 246l102 -53q-72 -102 -71 -141q0 -51 127 -52v-208h-334zM471 1178v208l176 246l103 -53q-72 -102 -72 -141q0 -51 127 -52v-208h-334z" />
<glyph unicode="&#x201d;" horiz-adv-x="935" d="M102 1380v209h332v-209l-176 -245l-100 53q70 100 69 141q0 51 -125 51zM524 1380v209h332v-209l-176 -245l-100 53q70 100 69 141q0 51 -125 51z" />
<glyph unicode="&#x201e;" horiz-adv-x="935" d="M102 0v209h332v-209l-176 -246l-100 53q70 100 69 142q0 51 -125 51zM524 0v209h332v-209l-176 -246l-100 53q70 100 69 142q0 51 -125 51z" />
<glyph unicode="&#x2022;" horiz-adv-x="1581" d="M541 717q0 51 19.5 95t52 77t76.5 52.5t95 19.5t95.5 -19.5t77 -52.5t52 -77t19.5 -95t-19.5 -95t-52 -77t-76.5 -52.5t-96 -19.5q-51 0 -95 19.5t-76.5 52.5t-52 77t-19.5 95z" />
<glyph unicode="&#x2026;" horiz-adv-x="4388" d="M788 2v209h334v-209h-334zM2023 2v209h334v-209h-334zM3258 2v209h334v-209h-334z" />
<glyph unicode="&#x202f;" horiz-adv-x="385" />
<glyph unicode="&#x2039;" horiz-adv-x="757" d="M72 737l454 461l152 -154l-303 -307l303 -307l-152 -154z" />
<glyph unicode="&#x203a;" horiz-adv-x="757" d="M72 430l303 307l-303 307l151 154l455 -461l-455 -461z" />
<glyph unicode="&#x205f;" horiz-adv-x="482" />
<glyph unicode="&#x20ac;" horiz-adv-x="1320" d="M-2 473l49 168h86v182h-129l49 168h80v41q0 92 36 174t96.5 141.5t140 94.5t169.5 35h642l-123 -332h-519q-45 0 -77.5 -33t-32.5 -80v-41h571l-61 -168h-510v-182h444l-61 -168h-383v-29q0 -47 32.5 -79.5t77.5 -32.5h312q59 0 137 92l246 -223q-37 -41 -85 -78 t-99.5 -64.5t-102.5 -43t-96 -15.5h-312q-90 0 -170.5 35t-141 95t-95.5 141t-35 173v29h-135z" />
<glyph unicode="&#x2122;" horiz-adv-x="1148" d="M88 1368v111h408v-111h-142v-457h-121v457h-145zM547 913v568h137l109 -293l106 293h133v-568h-114v312l-123 -316l-136 328v-324h-112z" />
<glyph unicode="&#xe000;" horiz-adv-x="1146" d="M0 0v1147h1147v-1147h-1147z" />
</font>
</defs>
</svg>
